<?xml version="1.0" encoding="UTF-8"?>
<svg id="Brand_mark_Logo" data-name="Brand mark Logo" xmlns="http://www.w3.org/2000/svg" viewBox="0 0 270 270">
  <defs>
    <style>
      .cls-1 {
        fill: #f2efe9;
      }
    </style>
  </defs>
  <g id="Cubiertos">
    <path class="cls-1" d="M109.43,112.97c.3.64.57,1.28.82,1.92,3.22,8.23,2.74,16.76-.81,22.68-.89-.53-1.89-.66-2.76-.26-1.52.71-2.05,2.81-1.26,4.81.04.11.09.22.14.32.61,1.3,1.64,2.22,2.72,2.54,0,0,.01,0,.01,0l34.35,63.17c.88,1.04,1.65,2.24,2.27,3.57,2.93,6.28,1.41,13.18-3.38,15.42s-11.06-1.04-13.98-7.32c-.62-1.33-1.04-2.69-1.27-4.02l-26.31-66.94c.44-1.04.41-2.42-.2-3.72-.05-.11-.1-.21-.16-.31-1.03-1.89-2.98-2.83-4.5-2.13-.86.4-1.4,1.25-1.57,2.28-6.82-1.08-13.66-6.2-17.9-13.96-.33-.61-.65-1.23-.94-1.87-.61-1.3-1.12-2.61-1.53-3.92l-15.89-41c-.49-1.05-.23-2.2.56-2.57s1.84.17,2.33,1.22l12.37,26.52s.03.07.05.1c.5.98,1.51,1.48,2.28,1.12s1.05-1.52.56-2.57l-1.03-3.02-8.45-24.85c-.49-1.05-.23-2.2.56-2.57s1.84.17,2.33,1.22l10.92,20.42,1.96,3.67.96,1.78c.49,1.05,1.53,1.59,2.33,1.22s1.05-1.52.56-2.57l-.75-1.87-1.55-3.86-8.63-21.48c-.49-1.05-.23-2.2.56-2.57s1.84.17,2.33,1.22l13.61,22.45,1.65,2.73c.49,1.05,1.53,1.59,2.33,1.22s1.03-1.45.61-2.46c-.01-.04-.03-.07-.04-.11l-12.37-26.52c-.49-1.05-.23-2.2.56-2.57s1.84.17,2.33,1.22l21.2,38.54c.73,1.16,1.41,2.39,2.01,3.68Z"/>
    <path class="cls-1" d="M206.83,120.01c-.76,1.63-1.57,3.22-2.42,4.74-4.91,8.78-11.17,15.6-17.44,19.47-1.45.48-2.93.8-4.42.96-.23-1.06-.87-1.96-1.84-2.41-1.7-.79-3.82.08-4.86,1.97-.06.1-.11.21-.16.31-.41.89-.54,1.82-.4,2.67.06.4.18.79.36,1.13l-25.87,67.07c-.18,1.46-.59,2.93-1.26,4.37-2.94,6.3-9.68,9.36-15.07,6.85s-7.37-9.65-4.44-15.95c.67-1.43,1.53-2.69,2.53-3.76h0s34.76-62.94,34.76-62.94c.35-.09.68-.22,1-.4.78-.44,1.45-1.15,1.88-2.08.05-.11.1-.22.14-.33.77-2.01.09-4.2-1.61-4.99-.97-.45-2.06-.36-3.02.14-1.04-1.54-1.88-3.25-2.5-5.06-.8-6.82.31-15.19,3.41-23.8.72-2,1.55-4.02,2.49-6.04,9.18-19.68,25.29-31.59,35.99-26.6s11.93,24.99,2.76,44.67Z"/>
  </g>
  <path class="cls-1" d="M135,18.67c31.07,0,60.28,12.1,82.26,34.07,21.97,21.97,34.07,51.18,34.07,82.26s-12.1,60.28-34.07,82.26c-21.97,21.97-51.18,34.07-82.26,34.07s-60.28-12.1-82.26-34.07c-21.97-21.97-34.07-51.18-34.07-82.26s12.1-60.28,34.07-82.26c21.97-21.97,51.18-34.07,82.26-34.07M135,2.67C61.92,2.67,2.67,61.92,2.67,135s59.25,132.33,132.33,132.33,132.33-59.24,132.33-132.33S208.08,2.67,135,2.67h0Z"/>
  <path class="cls-1" d="M135,35.14c55.06,0,99.86,44.8,99.86,99.86s-44.8,99.86-99.86,99.86-99.86-44.8-99.86-99.86,44.8-99.86,99.86-99.86M135,29.14c-58.47,0-105.86,47.4-105.86,105.86s47.4,105.86,105.86,105.86,105.86-47.4,105.86-105.86S193.47,29.14,135,29.14h0Z"/>
</svg>