<?xml version="1.0" encoding="UTF-8"?>
<svg id="Favicon" xmlns="http://www.w3.org/2000/svg" viewBox="0 0 55 55">
  <defs>
    <style>
      .cls-1 {
        fill: #f2efe9;
      }
    </style>
  </defs>
  <g id="Logo-2" data-name="Logo">
    <g id="Cubiertos">
      <path class="cls-1" d="M22.2,22.93c.06.13.12.26.17.4.67,1.71.57,3.47-.17,4.7-.19-.11-.39-.14-.57-.05-.31.15-.42.58-.26,1,0,.02.02.05.03.07.13.27.34.46.56.53,0,0,0,0,0,0l7.12,13.09c.18.22.34.46.47.74.61,1.3.29,2.73-.7,3.19s-2.29-.22-2.9-1.52c-.13-.28-.22-.56-.26-.83l-5.45-13.87c.09-.22.08-.5-.04-.77-.01-.02-.02-.04-.03-.06-.21-.39-.62-.59-.93-.44-.18.08-.29.26-.33.47-1.41-.22-2.83-1.28-3.71-2.89-.07-.13-.13-.25-.2-.39-.13-.27-.23-.54-.32-.81l-3.29-8.5c-.1-.22-.05-.46.12-.53s.38.04.48.25l2.56,5.5s0,.01.01.02c.1.2.31.31.47.23s.22-.32.12-.53l-.21-.63-1.75-5.15c-.1-.22-.05-.46.12-.53s.38.04.48.25l2.26,4.23.41.76.2.37c.1.22.32.33.48.25s.22-.32.12-.53l-.16-.39-.32-.8-1.79-4.45c-.1-.22-.05-.46.12-.53s.38.04.48.25l2.82,4.65.34.57c.1.22.32.33.48.25s.21-.3.13-.51c0,0,0-.01,0-.02l-2.56-5.5c-.1-.22-.05-.46.12-.53s.38.04.48.25l4.39,7.99c.15.24.29.49.42.76Z"/>
      <path class="cls-1" d="M42.39,24.39c-.16.34-.33.67-.5.98-1.02,1.82-2.32,3.23-3.61,4.03-.3.1-.61.17-.92.2-.05-.22-.18-.41-.38-.5-.35-.16-.79.02-1.01.41-.01.02-.02.04-.03.06-.09.18-.11.38-.08.55.01.08.04.16.07.24l-5.36,13.9c-.04.3-.12.61-.26.91-.61,1.3-2.01,1.94-3.12,1.42s-1.53-2-.92-3.31c.14-.3.32-.56.52-.78h0s7.2-13.04,7.2-13.04c.07-.02.14-.05.21-.08.16-.09.3-.24.39-.43.01-.02.02-.04.03-.07.16-.42.02-.87-.33-1.03-.2-.09-.43-.08-.63.03-.22-.32-.39-.67-.52-1.05-.17-1.41.06-3.15.71-4.93.15-.42.32-.83.52-1.25,1.9-4.08,5.24-6.55,7.46-5.51s2.47,5.18.57,9.26Z"/>
    </g>
    <path class="cls-1" d="M27.5,3.07c13.47,0,24.43,10.96,24.43,24.43s-10.96,24.43-24.43,24.43S3.07,40.97,3.07,27.5,14.03,3.07,27.5,3.07M27.5.07C12.35.07.07,12.35.07,27.5s12.28,27.43,27.43,27.43,27.43-12.28,27.43-27.43S42.65.07,27.5.07h0Z"/>
    <path class="cls-1" d="M27.5,6.56c11.55,0,20.94,9.39,20.94,20.94s-9.39,20.94-20.94,20.94S6.56,39.05,6.56,27.5,15.95,6.56,27.5,6.56M27.5,5.56C15.38,5.56,5.56,15.38,5.56,27.5s9.82,21.94,21.94,21.94,21.94-9.82,21.94-21.94S39.62,5.56,27.5,5.56h0Z"/>
  </g>
</svg>