<?xml version="1.0" encoding="UTF-8"?>
<svg id="Primary_Logo" data-name="Primary Logo" xmlns="http://www.w3.org/2000/svg" viewBox="0 0 553.32 332.01">
  <defs>
    <style>
      .cls-1 {
        font-family: NeulisSans-Regular, 'Neulis Sans';
        font-size: 80px;
      }

      .cls-1, .cls-2, .cls-3 {
        fill: #f2efe9;
      }

      .cls-2 {
        font-family: BeckmanFree, Beckman;
        font-size: 21px;
      }

      .cls-4 {
        letter-spacing: 0em;
      }

      .cls-5 {
        letter-spacing: -.1em;
      }

      .cls-6 {
        letter-spacing: -.03em;
      }
    </style>
  </defs>
  <g id="Letters_copy" data-name="Letters copy">
    <text class="cls-2" transform="translate(138.22 328.01)"><tspan x="0" y="0">make it - smell it - enj</tspan><tspan class="cls-5" x="231.07" y="0">o</tspan><tspan x="245.51" y="0">y it</tspan></text>
    <text class="cls-1" transform="translate(1.6 283.13)"><tspan class="cls-6" x="0" y="0">v</tspan><tspan x="43.12" y="0">elbe</tspan><tspan class="cls-6" x="213.44" y="0">k</tspan><tspan x="253.92" y="0">om</tspan><tspan class="cls-4" x="379.03" y="0">m</tspan><tspan x="454.63" y="0">en</tspan></text>
  </g>
  <g id="Logo-2" data-name="Logo">
    <g id="Cubiertos">
      <path class="cls-3" d="M261.13,80.3c.2.43.38.85.55,1.28,2.15,5.49,1.83,11.18-.54,15.12-.6-.36-1.26-.44-1.84-.17-1.01.47-1.37,1.88-.84,3.21.03.07.06.14.09.22.4.87,1.1,1.48,1.82,1.7,0,0,0,0,0,0l22.9,42.12c.58.69,1.1,1.49,1.51,2.38,1.95,4.19.94,8.79-2.26,10.28s-7.37-.69-9.32-4.88c-.41-.89-.69-1.79-.85-2.68l-17.54-44.64c.3-.69.27-1.61-.13-2.48-.03-.07-.07-.14-.11-.21-.69-1.26-1.99-1.89-3-1.42-.57.27-.94.83-1.05,1.52-4.55-.72-9.11-4.13-11.93-9.31-.22-.4-.43-.82-.63-1.24-.4-.87-.75-1.74-1.02-2.62l-10.6-27.34c-.32-.7-.16-1.46.38-1.71s1.23.12,1.55.81l8.25,17.68s.02.05.04.07c.34.65,1,.99,1.52.75s.7-1.02.38-1.71l-.68-2.01-5.63-16.57c-.32-.7-.16-1.46.38-1.71s1.23.12,1.55.81l7.28,13.61,1.31,2.45.64,1.19c.32.7,1.02,1.06,1.55.81s.7-1.02.38-1.71l-.5-1.25-1.03-2.58-5.76-14.32c-.32-.7-.16-1.46.38-1.71s1.23.12,1.55.81l9.07,14.97,1.1,1.82c.32.7,1.02,1.06,1.55.81s.69-.96.41-1.64c0-.02-.02-.05-.03-.07l-8.25-17.68c-.32-.7-.16-1.46.38-1.71s1.23.12,1.55.81l14.14,25.7c.49.77.94,1.59,1.34,2.45Z"/>
      <path class="cls-3" d="M326.08,85c-.51,1.09-1.05,2.14-1.62,3.16-3.27,5.86-7.45,10.4-11.63,12.98-.97.32-1.96.53-2.95.64-.15-.71-.58-1.3-1.22-1.6-1.14-.53-2.54.06-3.24,1.31-.04.07-.08.14-.11.21-.28.59-.36,1.21-.27,1.78.04.27.12.53.24.76l-17.25,44.72c-.12.97-.39,1.96-.84,2.91-1.96,4.2-6.46,6.24-10.05,4.57s-4.92-6.44-2.96-10.64c.45-.95,1.02-1.8,1.69-2.51h0s23.18-41.97,23.18-41.97c.23-.06.45-.15.67-.27.52-.29.97-.77,1.26-1.39.03-.07.07-.14.09-.22.52-1.34.06-2.8-1.08-3.33-.65-.3-1.38-.24-2.02.09-.69-1.03-1.25-2.16-1.67-3.37-.54-4.55.2-10.13,2.27-15.87.48-1.34,1.03-2.68,1.66-4.03,6.12-13.12,16.86-21.06,24-17.74s7.96,16.66,1.84,29.78Z"/>
    </g>
    <path class="cls-3" d="M278.18,14.76c44.24,0,80.24,35.99,80.24,80.24s-35.99,80.24-80.24,80.24-80.24-35.99-80.24-80.24S233.94,14.76,278.18,14.76M278.18,6.76c-48.73,0-88.24,39.5-88.24,88.24s39.5,88.24,88.24,88.24,88.24-39.5,88.24-88.24S326.91,6.76,278.18,6.76h0Z"/>
    <path class="cls-3" d="M278.18,28.4c36.72,0,66.59,29.87,66.59,66.59s-29.87,66.59-66.59,66.59-66.59-29.87-66.59-66.59,29.87-66.59,66.59-66.59M278.18,24.4c-38.99,0-70.59,31.6-70.59,70.59s31.6,70.59,70.59,70.59,70.59-31.6,70.59-70.59-31.6-70.59-70.59-70.59h0Z"/>
  </g>
</svg>