<?xml version="1.0" encoding="UTF-8"?>
<svg id="Secondary_Logo" data-name="Secondary Logo" xmlns="http://www.w3.org/2000/svg" viewBox="0 0 657.81 94.7">
  <defs>
    <style>
      .cls-1 {
        font-family: NeulisSans-Regular, 'Neulis Sans';
        font-size: 80px;
      }

      .cls-1, .cls-2 {
        fill: #f2efe9;
      }

      .cls-3 {
        letter-spacing: 0em;
      }

      .cls-4 {
        letter-spacing: -.03em;
      }
    </style>
  </defs>
  <g id="Logo-2" data-name="Logo">
    <g id="Cubiertos">
      <path class="cls-2" d="M39.68,40.16c.1.21.19.42.27.64,1.07,2.72.91,5.54-.27,7.5-.3-.18-.63-.22-.91-.09-.5.23-.68.93-.42,1.59.01.04.03.07.05.11.2.43.54.73.9.84,0,0,0,0,0,0l11.36,20.89c.29.34.55.74.75,1.18.97,2.08.47,4.36-1.12,5.1s-3.66-.34-4.62-2.42c-.2-.44-.34-.89-.42-1.33l-8.7-22.14c.15-.34.14-.8-.07-1.23-.02-.04-.03-.07-.05-.1-.34-.62-.99-.94-1.49-.7-.28.13-.46.41-.52.75-2.25-.36-4.52-2.05-5.92-4.62-.11-.2-.21-.41-.31-.62-.2-.43-.37-.86-.51-1.3l-5.25-13.56c-.16-.35-.08-.73.19-.85s.61.06.77.4l4.09,8.77s.01.02.02.03c.17.32.5.49.75.37s.35-.5.19-.85l-.34-1-2.79-8.22c-.16-.35-.08-.73.19-.85s.61.06.77.4l3.61,6.75.65,1.21.32.59c.16.35.51.53.77.4s.35-.5.19-.85l-.25-.62-.51-1.28-2.86-7.1c-.16-.35-.08-.73.19-.85s.61.06.77.4l4.5,7.42.55.9c.16.35.51.53.77.4s.34-.48.2-.81c0-.01,0-.02-.01-.04l-4.09-8.77c-.16-.35-.08-.73.19-.85s.61.06.77.4l7.01,12.75c.24.38.47.79.66,1.22Z"/>
      <path class="cls-2" d="M71.9,42.49c-.25.54-.52,1.06-.8,1.57-1.62,2.9-3.69,5.16-5.77,6.44-.48.16-.97.26-1.46.32-.08-.35-.29-.65-.61-.8-.56-.26-1.26.03-1.61.65-.02.03-.04.07-.05.1-.14.29-.18.6-.13.88.02.13.06.26.12.38l-8.55,22.18c-.06.48-.19.97-.42,1.44-.97,2.08-3.2,3.1-4.98,2.27s-2.44-3.19-1.47-5.27c.22-.47.51-.89.84-1.24h0s11.49-20.81,11.49-20.81c.11-.03.23-.07.33-.13.26-.15.48-.38.62-.69.02-.04.03-.07.04-.11.26-.67.03-1.39-.53-1.65-.32-.15-.68-.12-1,.05-.34-.51-.62-1.07-.83-1.67-.27-2.26.1-5.02,1.13-7.87.24-.66.51-1.33.82-2,3.03-6.51,8.36-10.45,11.9-8.8s3.95,8.26.91,14.77Z"/>
    </g>
    <path class="cls-2" d="M48.14,8.69c21.37,0,38.76,17.39,38.76,38.76s-17.39,38.76-38.76,38.76S9.38,68.82,9.38,47.45,26.77,8.69,48.14,8.69M48.14,3.69C23.97,3.69,4.38,23.28,4.38,47.45s19.59,43.76,43.76,43.76,43.76-19.59,43.76-43.76S72.31,3.69,48.14,3.69h0Z"/>
    <path class="cls-2" d="M48.14,14.44c18.2,0,33.01,14.81,33.01,33.01s-14.81,33.01-33.01,33.01S15.13,65.65,15.13,47.45,29.94,14.44,48.14,14.44M48.14,12.44c-19.34,0-35.01,15.67-35.01,35.01s15.67,35.01,35.01,35.01,35.01-15.67,35.01-35.01S67.48,12.44,48.14,12.44h0Z"/>
  </g>
  <text class="cls-1" transform="translate(105.81 75.97)"><tspan class="cls-4" x="0" y="0">v</tspan><tspan x="43.12" y="0">elbe</tspan><tspan class="cls-4" x="213.44" y="0">k</tspan><tspan x="253.92" y="0">om</tspan><tspan class="cls-3" x="379.03" y="0">m</tspan><tspan x="454.63" y="0">en</tspan></text>
</svg>